<svg id="Layer_1" data-name="Layer 1" xmlns="http://www.w3.org/2000/svg" viewBox="0 0 398.31 166.4"><defs><style>.cls-1{fill:#231f20;}</style></defs><title>Artboard 1</title><path class="cls-1" d="M128.93,28c0-2.86,0-4.39-1.43-4.39-.81,0-1.73,1.23-2.65,3.88-2.75,8.36-6.53,27.85-9.38,43.05-.72,3.77-1.74,4.28-8.78,4.28-6.53,0-6.93-.51-8-4.28C95.68,59,88.84,35,85,26.73,84.15,25,83.54,24,82.62,24c-1.43,0-1.53,2.45-1.53,5.1,0,17.85,3.88,35.19,11.12,42.23,1.94,1.94,2.24,2.14,2.24,2.86a.9.9,0,0,1-.92.71c-2,0-5.4-.2-11.52-.2-3.88,0-6.84.2-8.57.2a.54.54,0,0,1-.61-.61c0-.61.3-.82,1.12-1.94,3.88-5.3,6.12-26.83,6.12-53,0-4-.51-7.55-3.88-7.55-1,0-2,.31-2.75.31a.69.69,0,0,1-.71-.72.64.64,0,0,1,.71-.71c5.1,0,11.53.41,16.12.41,8.87,0,11.83-.41,18-.41,1.74,0,2.45.51,2.65,2.85a235.13,235.13,0,0,0,3.37,23.47c1.33,5.81,2.24,7.85,3.77,7.85s2.25-2.24,3.17-5.61c2.24-8.67,3.87-14.28,5.61-26.22.2-1.63.61-2.34,3.26-2.34,3.88,0,6.43.41,12.85.41,5.82,0,11.84-.41,16.83-.41a.65.65,0,0,1,.72.71.7.7,0,0,1-.72.72c-.71,0-1.73-.31-2.75-.31-2.55,0-2.75,3.16-3,6.43-.41,6.22-.51,13.56-.51,20.91,0,10.4.31,20.81.51,28.15.21,4.8.72,6.53,3.27,6.53.51,0,1.63-.2,2.44-.2.51,0,.72.3.72.61a.65.65,0,0,1-.72.71c-4,0-11.42-.2-20.7-.2-8,0-13.16.2-16.94.2a.64.64,0,0,1-.71-.71.75.75,0,0,1,.82-.82c1.12,0,2.65.41,3.36.41,2.55,0,3-1.73,3.27-6.53C128.62,61.3,128.93,50.59,128.93,28Z"/><path class="cls-1" d="M178.19,19.89c4.08,0,8-.61,11.94-.61,1.73,0,2.24.81,2.24,2.75s-.71,17.34-.71,25.91c0,3.67,0,13.16.1,19.28.1,5.1.41,6.53,1.84,6.53.51,0,.91-.2,1.32-.2s.72.3.72.61a.65.65,0,0,1-.72.71c-2.75,0-10.71-.41-16.22-.41s-10.4.41-15.5.41c-.51,0-.82-.2-.82-.71s.31-.61.82-.61.92.2,1.53.2c1.12,0,1.22-1.84,1.33-4.08.3-8.88.61-18.67.61-28.36,0-5.51-.1-11.42-.31-16.22-.2-3.87-.71-4.69-2.24-4.69-1,0-1.63.1-2,.1s-.51-.3-.51-.61.1-.61.51-.61C167.18,19.28,172.07,19.89,178.19,19.89Zm16.22-10.1c0,5.51-4.08,7.55-15.71,7.65S163,15.3,163,9.79C163,3,170.34,0,178.7,0S194.41,2.86,194.41,9.79Z"/><path class="cls-1" d="M198.39,74.26a.58.58,0,0,1,.61-.61,8,8,0,0,0,1,.1c1.63,0,1.94-1.94,2-5.92.2-9.18.31-18.26.31-27.44s-.11-18.36-.31-27.23c-.1-4.18-.51-6-2.65-6-.82,0-3.06.51-3.57.51s-.92-.2-.92-.82a.64.64,0,0,1,.71-.71c14.08,0,22.14-2.35,30-2.35,2.15,0,2.76,1.13,2.76,3.06,0,4.39-.82,16.53-.82,33.46,0,10.41.1,23.56.31,30.5.1,2.14.3,3,1.53,3,.51,0,1.22-.2,1.53-.2s.71.2.71.61a.64.64,0,0,1-.71.71c-2.76,0-10.81-.2-16.43-.2-6.83,0-13.46.2-15.5.2A.58.58,0,0,1,198.39,74.26Z"/><path class="cls-1" d="M232.35,74.26a.59.59,0,0,1,.61-.61,8.47,8.47,0,0,0,1,.1c1.64,0,1.94-1.94,2-5.92.21-9.18.31-18.26.31-27.44S236.23,22,236,13.16c-.1-4.18-.5-6-2.65-6-.81,0-3.06.51-3.57.51s-.92-.2-.92-.82a.64.64,0,0,1,.72-.71c13.46,0,22.24-2.35,29.78-2.35,2.35,0,3,1,3,3,0,6.73-.61,19.28-.71,30.81,0,2.55.41,3.06,1.53,3.06,3.57,0,6.22-9.79,6.12-14.79,0-3.47-.82-5.51-2.45-5.51-.92,0-1.63.2-2.24.2a.68.68,0,0,1-.72-.61c0-.31.21-.61.72-.61,4.69,0,11.11.41,16.72.41,4.29,0,10.1-.41,13.88-.41.81,0,1.32.3,1.32,1.43,0,14.07-19.28,14.48-31.21,20.19a1,1,0,0,0-.61.92c0,.61.51.92,1.22.92,4.59,0,9.49-3.26,16-3.26,6,0,11.63,3.06,11.63,10.6,0,3.17-.21,8-.21,12.86,0,2.14.41,2.55,1.23,2.55.4,0,1.12-.41,1.12-2.25,0-2.14-.92-3.67-.92-4.89,0-.41.1-.82.61-.82.92,0,1.33,1.94,1.33,5.82,0,7.85-1.12,12.44-13.37,12.54-9.89,0-15.7-4.18-15.7-15.4,0-3.88.3-8.37.3-13.06,0-2.55-1.63-3.77-4.18-3.77-1.84,0-2.14,1.22-2.14,2.55v21c0,4.8.71,6.63,3.26,6.63.61,0,3-.51,3.88-.51.61,0,.92.31.92.72s-.31.81-1,.81c-3.27,0-13.47-.2-20.2-.2s-9.28.2-15.51.2A.59.59,0,0,1,232.35,74.26Z"/><path class="cls-1" d="M374.75,75.89c-9.29,0-15-3.26-22.24-16.12a.83.83,0,0,0-.82-.4c-.61,0-1,.51-1.12,1.22-1.84,9.9-5.41,15.3-17.44,15.3-11.83,0-17-5.71-17-18,0-21.12,18.26-14.79,18.26-19,0-2.44-8.46-5.2-8.46-14.79s9.28-14.48,27.74-14.48c18.77,0,23.46,3.77,23.46,10.5,0,7.86-8.06,10.51-14.38,11.23-.92.1-1.94.3-1.94,1.63,0,2.75,3.88,6.32,8.57,10.4,3.16,2.76,3.88,3.16,4.39,3.16s.91-.3.91-1.12c0-1.43-.71-4.89-.71-7.14,0-10.4,2.75-17,20.81-17,1.94,0,2.55.51,2.55,1.63,0,1.94-.92,4.28-.92,9.18,0,2.45.31,4.9.31,7.65,0,1.12-.41,1.63-1.43,1.63-.71,0-4.69-.61-7.35-.61-6.73,0-12.24,1.84-12.24,5.61,0,3,3.88,5.81,11.84,5.81,4.89,0,5.81-1.73,5.81-4.69,0-1.12-.71-2.24-.71-3.26,0-.72.41-1.12.92-1.12s.91.51.91,1.22C394.43,65.08,390.35,75.89,374.75,75.89Zm-25.4-17.14c.71,0,1.32-.2,1.32-.71,0-.2,0-.61-3.16-4.49-8.16-9.79-10.61-13.16-11.93-13.16-1.13,0-1.23,1.13-1.23,4.19C334.35,52.33,338.13,58.75,349.35,58.75ZM360.16,31c1.73,0,3.67-5.81,3.67-12.34,0-6.12-1.43-7.86-3.77-7.86-2.65,0-3.27,1.33-3.27,5.41C356.79,28.46,358.22,31,360.16,31Z"/><path class="cls-1" d="M33.76,166.4C16.12,166.4,0,161,0,133.45c0-20.8,10.91-34.37,30.5-34.37,14.59,0,19.69,5.3,26.32,5.3,1.73,0,3.06-.61,3.06-2.24a24.23,24.23,0,0,0-.31-2.55c0-.72.31-1,.82-1s.81.3.81,1c0,1.63-1,11.12-1.12,17.34-.1,4.49.51,9.49.51,12.95,0,1.64-.41,2.86-2.75,3-15.71-.1-20.4-7.55-23.57-24.48-.71-4.28-1-8.26-4-8.26-3.27,0-4.7,6-4.7,19.89,0,16.93,4.9,26.62,21,26.62,8.36,0,13.46-2.14,13.46-6.42,0-1.84-.71-3.47-.71-4.49a.91.91,0,0,1,.91-.92c.51,0,.92.31.92,1.12C61.2,154,55.69,166.4,33.76,166.4Z"/><path class="cls-1" d="M94.55,165.89c-21.11,0-28.76-10.2-28.76-26.21,0-23.46,11.83-31.93,28.76-31.93s29,9.08,28.77,31.93C123.32,155.18,115.67,165.89,94.55,165.89Zm.21-57.12c-2.45,0-3.78,4.18-3.78,28.66C91,154.88,92.21,160,94.76,160s3.87-4.39,3.87-22.55C98.63,112.34,97.21,108.77,94.76,108.77Z"/><path class="cls-1" d="M156.16,165.89c-21.11,0-28.76-10.2-28.76-26.21,0-23.46,11.83-31.93,28.76-31.93s29,9.08,28.77,31.93C184.93,155.18,177.28,165.89,156.16,165.89Zm.21-57.12c-2.45,0-3.78,4.18-3.78,28.66,0,17.45,1.23,22.55,3.78,22.55s3.87-4.39,3.87-22.55C160.24,112.34,158.81,108.77,156.37,108.77Z"/><path class="cls-1" d="M185.33,164.26a.59.59,0,0,1,.61-.61,8.22,8.22,0,0,0,1,.1c1.64,0,1.94-1.94,2-5.92.21-9.18.31-18.26.31-27.44s-.1-18.36-.31-27.23c-.1-4.18-.51-6-2.65-6-.81,0-3.06.51-3.57.51s-.92-.2-.92-.82a.64.64,0,0,1,.72-.71c13.46,0,22.24-2.35,29.78-2.35,2.35,0,3,1,3,3,0,6.73-.61,19.28-.71,30.81,0,2.55.41,3.06,1.53,3.06,3.57,0,6.22-9.79,6.12-14.79,0-3.47-.82-5.51-2.45-5.51-.92,0-1.63.2-2.24.2a.68.68,0,0,1-.72-.61c0-.31.21-.61.72-.61,4.69,0,11.11.41,16.72.41,4.29,0,10.1-.41,13.88-.41.81,0,1.32.3,1.32,1.43,0,14.07-19.28,14.48-31.21,20.19a1,1,0,0,0-.61.92c0,.61.51.92,1.22.92,4.59,0,9.49-3.26,16-3.26,6,0,11.62,3.06,11.62,10.6,0,3.17-.2,8-.2,12.86,0,2.14.41,2.55,1.23,2.55.4,0,1.12-.41,1.12-2.25,0-2.14-.92-3.67-.92-4.89,0-.41.1-.82.61-.82.92,0,1.33,1.94,1.33,5.82,0,7.85-1.13,12.44-13.37,12.54-9.89,0-15.7-4.18-15.7-15.4,0-3.88.3-8.37.3-13.06,0-2.55-1.63-3.77-4.18-3.77-1.84,0-2.14,1.22-2.14,2.55v21c0,4.8.71,6.63,3.26,6.63.61,0,3-.51,3.88-.51.61,0,.92.31.92.72s-.31.81-1,.81c-3.27,0-13.47-.2-20.2-.2s-9.28.2-15.51.2A.59.59,0,0,1,185.33,164.26Z"/><path class="cls-1" d="M268.26,109.89c4.08,0,7.95-.61,11.93-.61,1.74,0,2.25.81,2.25,2.75s-.72,17.34-.72,25.91c0,3.67,0,13.16.1,19.28.11,5.1.41,6.53,1.84,6.53.51,0,.92-.2,1.33-.2s.71.3.71.61a.64.64,0,0,1-.71.71c-2.76,0-10.71-.41-16.22-.41s-10.41.41-15.51.41c-.51,0-.81-.2-.81-.71s.3-.61.81-.61.92.2,1.53.2c1.13,0,1.23-1.84,1.33-4.08.31-8.88.61-18.67.61-28.36,0-5.51-.1-11.42-.3-16.22-.21-3.87-.72-4.69-2.25-4.69-1,0-1.63.1-2,.1s-.51-.3-.51-.61.1-.61.51-.61C257.24,109.28,262.14,109.89,268.26,109.89Zm16.22-10.1c0,5.51-4.08,7.55-15.71,7.65s-15.71-2.14-15.71-7.65c0-6.83,7.34-9.79,15.71-9.79S284.48,92.86,284.48,99.79Z"/><path class="cls-1" d="M315.18,166.4c-15.41,0-29.18-6.22-29.18-28.05,0-22.54,12.55-30.6,29.79-30.6,20.3,0,26.32,9,26.32,20.5,0,5.61-2.65,9.79-15.61,9.79-9.69,0-14,1-14,5.31,0,3.06,3.57,4.89,11.22,4.89,8.77,0,18.05-2.85,18.05-10.71a.49.49,0,0,1,.51-.51.48.48,0,0,1,.51.51C342.82,158.14,335.48,166.4,315.18,166.4Zm-3.27-36.82a57,57,0,0,0,.21,6.63c.2.92.71,1.22,1.32,1.22,1.84,0,5.92-2.34,5.92-19.79,0-7.55-1.33-8.87-3.16-8.87C313,108.77,311.91,115.09,311.91,129.58Z"/><path class="cls-1" d="M374.44,157.94c0-5.41-4.39-9-10.3-11.12-9.8-3.68-17.75-7.76-17.75-19.28,0-10.41,7.24-19.28,27.84-19.28,14.59,0,22.14,3.06,22.14,9.69,0,4.49-3.57,7.24-10.4,7.24S374,123,374,117.75a15.67,15.67,0,0,1,.92-5.41,7.87,7.87,0,0,0,.41-1.84c0-.71-.31-1.22-1.33-1.22-4.28,0-5.81,3-5.81,6.12,0,4.18,2.44,7.45,13.56,12.14,12.75,5.4,16.53,10.81,16.53,19.68,0,11.94-9.39,18.67-27.75,18.67-19,0-24-4.38-24-10.3,0-5,3.88-7.55,11-7.55s11.73,3.37,11.73,8a11.07,11.07,0,0,1-1.12,5.1,4.14,4.14,0,0,0-.72,2.24c0,1,.61,1.53,1.74,1.53C372.09,164.87,374.44,161.71,374.44,157.94Z"/></svg>